<?xml version="1.0" encoding="utf-8"?>
<!-- Generator: Adobe Illustrator 26.5.0, SVG Export Plug-In . SVG Version: 6.00 Build 0)  -->
<svg version="1.1" id="Layer_1" xmlns="http://www.w3.org/2000/svg" xmlns:xlink="http://www.w3.org/1999/xlink" x="0px" y="0px"
	 viewBox="0 0 1024 1024" style="enable-background:new 0 0 1024 1024;" xml:space="preserve">
<style type="text/css">
	.st0{fill:#FFFFFF;}
	.st1{fill:#8DA018;}
	.st2{fill:#AA00A8;}
	.st3{fill:#0057B7;}
</style>
<path id="base" class="st0" d="M515.2,547.3c0.3,1.2-3.2,32.9-5.4,49.6c-1.2,9.5-2.2,16.3-5.8,38c-4,24.5-5.3,33.9-6.9,48.1
	c-2.2,19.9-2.1,18.1-2.1,61.8c0,36.2,0,42.4,0.8,59.2c1.3,32.9,2.5,58.7,3.1,66.2c0.5,5.4-0.5,6.1-6.4,5.9l-3.9-0.1v2.2
	c0,1.9-0.1,2.4-0.8,3.1c-1.2,1.2-5.7,1.6-8.8,0.7c-0.5-0.1-0.5,0.5-0.5,3.1c0.1,3.2,0.1,3.2-1,4.3l-1.1,1.1l-3.6-0.1
	c-3.4-0.2-4.5-0.5-15.7-3.9c-35.8-10.6-71.6-19.4-96.4-23.5c-17.4-2.9-30.9-4.5-41.7-5c-2.2-0.1-3.6-0.2-4.9-0.2
	c0.3-0.1,0.5-0.2,0.8-0.5l-4.9-0.7V452.8l4.9-0.8c-0.5-0.5-1.1-0.6-2.5-0.7c0.6-0.1,1.6-0.2,3.4-0.2c0.7,0,1.3,0,2.1,0v-0.5h3.9
	l5.9-0.6l5.9-1.1l5.8-1.8l6.1-2.4l5.7-3.2l4.9-3.9l3.2-3.6l2.8-4.1l2.4-4.4l2.5-6l1.9-6.5l2.4-7.5l17.6,4.5l14.4,5l13.9,6.3
	l13.3,7.6l9.8,6.9l9.2,7.4l8.5,8.3l7.7,9l9.8,14.3l8.3,15.2l7.7,15.4l9.9,20.5l8.6,18.8l4.6,0.5h-2.5
	C513.6,545.5,515,546.3,515.2,547.3z M311.1,856.9l-0.8-0.9V452.9l1-0.9c0.5-0.5,0.7-0.6,1.3-0.7c-0.9-0.1-2.1-0.2-3.9-0.2v-0.5
	h-3.9l-5.9-0.6l-5.9-1.1l-5.8-1.8l-6.1-2.4l-5.7-3.2l-4.9-3.9l-3.2-3.6l-2.9-4.1l-2.4-4.5l-2.5-6l-1.9-6.5l-2.4-7.4l-17.6,4.4
	l-14.4,5l-13.9,6.4l-13.3,7.6l-9.8,6.8l-9.1,7.3l-8.6,8.2l-7.7,8.8l-9.9,14.3l-8.3,15.1l-7.6,15.4l-10,20.5l-8.5,19l-4.6,0.5h4.6
	c0,0.1-0.1,0.1-0.1,0.1c-0.2,0.1-0.9,0.3-1.6,0.3s-1.6,0.5-2.3,0.9l-1.2,0.8l0.1,3c0.1,3.6,3.5,34.4,5.2,47.6
	c1.3,9.8,2.5,18.2,6.4,41.7c4.2,25.7,5.9,39.1,8,59.8c0.6,6.1,0.6,11.1,0.6,45.1c0,25.5-0.1,41.8-0.5,49c-0.2,5.9-0.8,18.4-1.1,27.5
	c-0.8,19.2-1.6,36.6-2.1,44.8c-0.5,8.6-0.5,8.8,0.6,10.1l0.9,1.1l4.1-0.1l4.2-0.1l-0.2,2c-0.2,1.9-0.1,2.1,0.9,3.1
	c0.9,0.8,1.3,1.1,3.4,1.3c1.2,0.1,3.1,0.1,4.1-0.1l1.9-0.5v3.4c0,4.7,0.2,4.9,4.6,5.1c3.9,0.1,3.4,0.2,22-5.2
	c27.9-8.2,52.8-14.4,76.9-19.4c19.2-3.9,42.2-7.1,56-7.6c4.7-0.2,6.3-0.3,7.2-0.6C311.7,857.6,311.6,857.5,311.1,856.9z
	 M1017.9,479.9c-0.2-1.1-1.9-2-3.6-2c-0.8,0-1.1-0.2-1.6-1.7h0.2l-2.2-9l-3.9-12.2l-4.8-12.1l-5.7-11.7l-6.8-11.8l-7.6-11.2
	l-8.3-10.6l-9.2-9.9l-14.2-12.4l-15.4-11.1l-16.1-10l-18.1-10.4l-18.6-9.5l-22-9.8l-2.8,5.4l-4.1,0.6l-5.8,0.6l-4.6,0.2l-4.6,0.1
	l-9.8,0.1l-10.2,0.1l-10.2-0.1l-9.9-0.1l-4.6-0.1l-4.6-0.2l-5.8-0.6l-4-0.5l-2.9-5.4l-22,9.8l-18.6,9.5l-18.1,10.4l-16.1,10
	L686,375.4l-14.2,12.4l-9,9.8l-8.3,10.6l-7.6,11.2l-6.8,11.8l-5.7,11.7l-4.8,12.1l-3.9,12.2l-2.2,9h0.2c-0.5,1.6-0.8,1.7-1.6,1.7
	c-1.3,0-3.1,0.8-3.4,1.3c-0.6,1.1-0.5,3.9,0.8,15.1c2.8,28.1,4.5,41.1,8,63c7.7,47.8,9.2,59.8,10.9,84.5c0.6,9.1,0.2,70.4-0.5,87.4
	c-1.6,36.1-1.9,43.5-3.6,76.2l-0.6,11.8l0.8,1c0.6,0.8,1.2,1.1,2.4,1.3c5.9,1,6.9,1.3,6.9,2.1c0,2.9,1.3,4.4,4,4.4
	c0.8,0,2.4,0.2,3.9,0.6l2.4,0.6l0.1,2.1c0.1,1.2,0.5,2.4,0.7,2.8c0.3,0.3,1.8,0.6,3.6,0.9c8.8,1.1,36.6,8.6,56.2,15.1
	c35.8,11.8,62.4,17.3,97.8,19.8c6,0.5,7.3,0.5,16.4-0.5c16.6-1.3,31-3.4,45.4-6.3c15.7-3.2,27.4-6.4,46.9-12.9
	c18-6,46.3-13.8,55.8-15.1c4.8-0.8,5.2-1.1,5.2-3.9v-1.9l1.8-0.5c1.1-0.2,3-0.6,4.4-0.8c3.2-0.5,3.9-1,3.9-3.4v-1.9l2.1-0.5
	c1.1-0.2,3.1-0.6,4.3-0.8c2.8-0.5,3.9-1.3,3.9-3.6c0-0.8-0.6-11.8-1.2-24.8c-1.2-22.5-1.6-30.9-3-62.4c-0.9-21.4-0.9-84.8,0-95.3
	c1.9-21.7,3.2-32.4,8.7-65.7c4.6-28.8,6.2-40.2,8.3-61.8C1017.5,488.9,1018.2,481,1017.9,479.9z M321.8,234.9l2.4,10.9l1.9,9.9
	l1.6,9.9l1.1,12.9l0.3,12.9l-0.5,18.5h285.9l-0.5-18.5l0.5-14.4l1.3-14.3L618,250l2.8-12.7l2.4-9.8l2.9-9.5l2.8-7.7l4.5-10.9l-7.3-3
	l0.6-1.3l-13.4-5.4l-5.1-2.1l-5.8-2.5l-4.2-1.9l-10.6-7.7L573,162.8L559.5,149l-12.4-15l-8.3-11.6l-7.6-12.1l-6.8-12.7l-8-18.1
	l-7-18.6l-9.3-27.3L490.7,3l-9.1,2.3l-1.8,3.5l-1.2,1.9l-1.2,1.8l-1.3,1.3l-1.3,1l-1.6,0.9l-2.3,0.8l-4.9-0.1l-3.4-0.1l-6.8-0.1
	l-5.4-0.2l-7.7-0.6l-2.1,15.7l-2.4,12.4l-3,12.3L431.8,67L428,78l-4.6,10.6l-8.1,15.4l-9.4,14.7l-10.3,13.9L384.2,146L372,158.6
	l-12.9,11.8l-13.3,10.7l-0.3,0.2l-6.3,3.4l-8,3.9l-15,6.9l0.5,1.1l-7.1,3.2l5.3,13.5l3.5,10.6L321.8,234.9z M306.3,335.4l1.1-12.9
	l1.6-9.9l1.9-9.9l2.4-10.9l3.1-10.9l3.6-10.6l5.3-13.5l-7.2-3.2l0.5-1.1l-15-6.9l-8-3.9l-6.3-3.4l-0.3-0.2l-13.2-10.6L263,215.6
	l-12.1-12.7l-11.4-13.4l-10.4-14.1l-9.3-14.7l-8.1-15.4l-4.6-10.6l-3.9-10.9l-3.4-11.2l-3-12.3L194.4,88l-2.2-15.8l-7.7,0.7L179,73
	h-6.5l-3.2,0.1l-4.9,0.1l-2.3-0.9l-1.6-0.8l-1.3-1l-1.3-1.3l-1.2-1.8l-1.2-1.9l-1.8-3.4l-9.1-2.4l-9.2,30.8l-9.3,27.3l-7,18.6
	l-8,18.2l-6.8,12.7l-7.6,12.1l-8.3,11.7L76,205.8l-13.5,13.6l-14.7,12.7l-10.7,8l-4.2,1.9l-5.8,2.8l-5.2,2.2l-13.4,5.4l0.6,1.3
	l-7.3,2.9l4.4,10.9l2.8,8l2.9,9.5l2.4,9.8l2.8,12.4l2.1,12.7l1.3,14.3l0.5,14.3l-0.5,18.4h286l-0.5-18.5L306.3,335.4z M459.9,979
	l-6.6-26.5l6.5-26.5v-8.3H138.2v8.3l6.6,26.5l-6.5,26.5v8.3h321.6L459.9,979L459.9,979z M338.1,387.3l-1-4.6l-1.2-3.6l-1.8-3.4
	l-2.8-3l-4.2-2.4l-4.6-1.4l-4.9-0.6l-4.4,0.2l-4.4-0.2l-4.9,0.6l-4.6,1.3l-4.2,2.4l-2.8,3l-1.8,3.4l-1.2,3.6l-1,4.6l-0.5,4.6
	l0.3,4.1L288,400l0.5,4.6l1,4.6l1.2,3.6l1.8,3.4l2.8,3l4.2,2.4l4.6,1.3l4.9,0.6l4.4-0.2l4.4,0.2l4.9-0.6l4.6-1.3l4.2-2.4l2.8-3
	l1.8-3.4l1.2-3.6l1-4.6l0.5-4.6l-0.3-4.1l0.3-4.1L338.1,387.3z M997.7,296.2l-0.8-15.8l-0.3-6.5l-0.3-6L996,261l-0.9-22.8l-0.6-16.4
	l-0.5-12.1l-0.3-16.1l-0.1-7.7l-0.1-6.8v-30.8H634.9v30.8v6.8l-0.1,7.7l-0.3,16.1l-0.3,12.1l-0.6,16.4l-0.9,22.8l-0.3,6.9l-0.3,6
	l-0.3,6.5l-0.8,15.8h309.6L997.7,296.2L997.7,296.2z M609,914.7l-0.8-6.5h0.1l-0.8-6.8h0.1l-0.9-6.8h0.1l-0.8-6.5h0.1l-1.6-12.4
	l-1.1-8.6l-0.9-7.3l-1.2-9.5l-0.5-3.9l-0.9-9.8l-1.1-13.4l-1.8-27.6l-1.6-31.9l-0.5-22.8l-0.2-18.4v-18.4l0.2-18.5l0.3-18.4
	l0.6-41.7l0.3-5.4l-0.2-2.4l0.1-19.1l-0.1-17l-0.1-13.9l-0.1-22l-9.8,0.1L582,551l-3.4,3.4l-1.8,1.3l-1.9,1.2l-2.1,1l-2.4,0.8
	l-3,0.8l-2.9,0.5l-3.4-0.1l-3.6-0.2l-3.1-0.3l-2.9-0.6l-2.5-1.1l-2.4-1.6l-3.4-2.5l-2.9-3l-3.6-4.9h-9.8L527,564l0.1,16.1l0.1,19.1
	l-0.1,18l0.2,2.9l-1.2,34.3l-0.6,24.6l-0.6,22.6l-0.1,14.5v14.5l0.5,21.6l0.8,21.6l1,19.6l1.2,19.6l1.6,19.8l1.8,19.8L534,875
	l0.2,1.9l0.5,4.7l0.2,2l0.5,4.7l3,25.7l7.5-0.9l54.6,9.5l8.3-1.1L609,914.7L609,914.7z M103.3,687l-1-18.2l-1.1-19.9l-1.6-23.8
	l-0.1-4.6l0.1-0.5l0.2-2.8h-0.2l-0.1-9.5v-8.3l0.1-19.1l0.1-16.1l0.2-18.1l-9.8-0.1l-3.6,5l-2.9,3l-3.4,2.5l-2.4,1.6l-2.5,1.1
	l-2.8,0.6l-3.2,0.5l-3.6,0.2l-3.4,0.1l-2.9-0.5l-3.1-0.8l-2.3-0.8l-2.1-1l-1.9-1.2l-1.8-1.3l-3.4-3.4l-3.9-5.2l-9.8-0.2l-0.1,22
	L30.8,582l-0.1,17.1l0.1,19.1l0.2,0.1l-0.2,2.4l0.1,0.1l-0.2-0.1l0.2,5.3l0.8,39.7l0.5,17.6l0.3,17.6l0.1,17.6L32.5,736l-0.3,21.7
	l-1.6,31.9l-1.7,27.6l-1.1,13.4L27,843.2l-1.2,12.1L24,870l-1.1,9.5l-1,7.3l-1.1,8.7l-1.6,12.4h0.1l-0.8,6.5h-0.1l-0.8,6.5l8.6,1.1
	l54.6-9.4l7.5,0.9l3-25.6l0.5-4.7l0.2-1.9l0.5-4.7l0.2-1.9l0.5-4.7l0.2-1.9l0.5-4.7l0.2-2l0.5-4.7l0.2-1.9l2.4-22.4l1.9-19.8
	l1.6-19.8l1.2-19.6l1-19.6l0.8-21.6l0.5-21.7l-0.3-12.1L103.3,687z"/>
<path id="stripe-1" class="st1" d="M224.3,987.4h-10.6v-39.8h10.6V987.4z M120.9,622.3h179.9v-15.8H120.9V622.3z M325.6,622.3h179.8
	v-15.8H325.6V622.3z M620.4,538.9v15.8H1013v-15.8H620.4z"/>
<path id="stripe-2" class="st2" d="M203,987.4h-10.6v-39.8H203V987.4z M21.2,348.3l-0.6,18.5h286l-0.5-18.5l0.3-12.9l0.5-5
	l-286.6-0.1l0.5,3.6L21.2,348.3z M614.6,310.1l-0.5-18.5l0.5-14.4l0.3-2.8H328.1l0.5,4.1l0.3,12.9l-0.5,18.5L614.6,310.1
	L614.6,310.1z M120.9,622.3v15.8h179.9v-15.8H120.9z M325.6,622.3v15.8h179.8v-15.8H325.6z M620.4,554.9v15.8H1013v-15.8H620.4z"/>
<path id="stripe-3" class="st3" d="M213.7,987.4h-10.6v-39.8h10.6V987.4z M120.9,638.1v15.8h179.9v-15.8H120.9z M325.6,638.1v15.8
	h179.8v-15.8H325.6z M620.4,570.7v15.8H1013v-15.8H620.4z"/>
</svg>
