<?xml version="1.0" encoding="utf-8"?>
<!-- Generator: Adobe Illustrator 26.0.3, SVG Export Plug-In . SVG Version: 6.00 Build 0)  -->
<svg version="1.1" id="Layer_1" xmlns="http://www.w3.org/2000/svg" xmlns:xlink="http://www.w3.org/1999/xlink" x="0px" y="0px"
	 viewBox="0 0 2048 2048" style="enable-background:new 0 0 2048 2048;" xml:space="preserve">
<style type="text/css">
	.st0{fill-rule:evenodd;clip-rule:evenodd;fill:#F2F2F2;}
	.st1{fill-rule:evenodd;clip-rule:evenodd;fill:#8DA018;}
	.st2{fill:#55AFDF;}
	.st3{fill:#0F4D5F;}
</style>
<path id="stripe-1" class="st0" d="M919.4,1835.5H276.1v16.8l13.2,53l-13.2,53v16.8h643.2v-16.8l-13.2-53l13.2-53V1835.5z
	 M1217.7,1829.4l0.1-0.1l-1.6-13.2h0.1l-1.6-13.4h0.1l-1.8-13.4h0.1l-0.8-5.6l-0.8-7.6h0.1l-3-24.8l-2.2-17.2l-1.8-14.6l-2.5-19.3
	l-0.8-7.6l-1.8-19.7l-2.2-26.8l-3.5-55.2l-3.1-63.8l-1-45.6l-0.4-36.9v-36.9l0.4-37l0.5-36.9l1.2-83.4l0.5-11.1l-0.4-4.8l0.1-38
	l-0.1-34.1l-0.1-27.9l-0.1-43.8l-19.7,0.1l-7.8,10.4l-6.6,6.6l-3.5,2.9l-3.8,2.5l-4.2,2l-4.8,1.6l-6,1.6l-5.7,1l-6.6-0.1l-7.2-0.4
	l-6.1-0.5l-5.7-1.2l-5.2-2.2l-5.1-3l-6.6-5.2l-5.7-6l-7.2-9.8h-19.7l0.1,36.5l0.1,32.2l0.1,38l-0.1,36l0.4,5.7l-2.5,68.5l-1.2,49.2
	l-1.2,45.2l-0.1,28.9v28.9l0.8,43.1l1.6,43.1l2,39.2l2.5,39.2l3.1,39.6l3.5,39.6l4.6,44.8l0.4,3.8l1,9.4l0.4,4l1,9.4l6,51.3l15-1.8
	l109.2,19l16.8-2.2L1217.7,1829.4z M206.6,1373.5l-2-36.5l-2.2-39.9l-3.1-47.7l-0.1-9.1l0.1-0.8l0.4-5.6h-0.4l-0.1-19.3v-16.8
	l0.1-38l0.1-32.2l0.1-36.2l-19.7-0.1l-7.2,10l-5.7,6l-6.8,5.2l-5.1,3l-5.2,2.2l-5.6,1.2l-6.4,0.8l-7.2,0.4l-6.6,0.1l-5.7-1l-6.1-1.6
	l-4.6-1.6l-4.2-2l-3.8-2.5l-3.5-2.9l-6.6-6.8l-7.8-10.4l-19.4-0.1l-0.1,43.8l-0.1,28l-0.1,34l0.1,38l0.4,0.1l-0.4,4.8l0.1,0.1
	l-0.4-0.1l0.4,10.8l1.6,79.5l0.8,35.2l0.5,35.2l0.1,35.2l-0.1,35l-0.5,43.4l-3.1,63.8l-3.4,55.2l-2.2,26.8l-1.6,25.9l-2.5,24
	l-3.5,29.6l-2.2,19.3l-2,14.6l-2.2,17.3l-3.1,24.8h0.1l-1.6,13.2h0.1l-1.6,13.2l17.1,2.2l109-18.8l15,1.8l6-51.2l1-9.4l0.4-3.8
	l1-9.4l0.4-3.8l1-9.4l0.4-3.8l1-9.4l0.4-4l1-9.4l0.4-3.8l4.8-44.8l3.8-39.6l3.1-39.6l2.5-39.2l2-39.2l1.6-43.1l0.8-43.4l-1.2-24
	L206.6,1373.5z"/>
<path id="base" class="st1" d="M45.1,1765.1l-2.9,0.4l-0.5,23.8h0.1l-1.6,13.4H40l-1.6,13.2h0.1l0,0l-1.6,13.2l0,0H37l-1.6,13.4
	l17.1,2l0,0l109-19l15,1.8l6-51.2l1-9.4l2.6-24L45.1,1765.1z M1217.7,1829.4L1217.7,1829.4l-1.4-13.4h0.1l-1.6-13.2h0.1l-1.6-13.4
	h0.1l-0.5-23.8l-2-0.4l-141.9-22.5v0.4l0.8,8.2l1.6,15.6l1,9.4l6,51.2l15-1.8l109,19l17.1-2L1217.7,1829.4z M1993.9,560.3l-0.8-13.4
	l-0.5-11.7l-0.5-13.8l-2-45.6l-1-32.8l-0.5-24l-0.5-32.2l-0.1-15.4V358v-61.6h-717.3V358l-0.1,13.4l-0.1,15.4l-0.5,32.2l-0.8,24
	l-1,32.8l-2,45.6l-0.5,13.8l-0.5,11.7l-0.5,13.4l-1.6,31.9h733.2L1993.9,560.3z M269.9,180l-18.6,54.6L237.3,272l-16,36.2l-13.4,25
	l-15,24.2l-16.7,23.2l-24.8,29.8l-27.2,27.6L94.9,463l-21.4,16l-8.5,3.8L53.4,488L43,492.4l-26.6,11.1l1,2.9l-14.6,6l9,21.8
	l5.6,15.8l5.6,19l5.1,19.3l5.6,25.3l4.4,25.3l2.5,28.4l1,28.8l-1,37h571.9l-1-37l0.5-25.9l2.5-25.9l3-19.8l3.8-19.8l5.1-22l6.1-21.4
	l7-21.4l10.6-26.8l-14.2-6.4l1-2.2l-30-13.7l-15.8-8.1l-12.6-7l-0.5-0.4L551.5,454l-25.8-23.6L501.2,405l-22.7-27l-21-28l-18.8-29.4
	l-16-30.9l-9-21.2l-7.8-21.8l-6.6-22.3l-6-24.6l-4.8-24.8l-4.2-31.5l-15.6,1.2l-11.1,0.4l-13.4,0.1h-6.4l-10,0.1l-4.6-1.6l-3.1-1.8
	l-2.9-2l-2.6-2.9l-2.5-3.5l-2.5-4l-3.5-7l-18.2-4.6L269.9,180z M1227.5,582.8l1-28.8l2.9-28.5l4.4-25.4l5.6-25l5.1-19.3l5.6-19
	l5.6-15.8l9-22l-14.6-6l1-2.9l-26.6-11.1l-10.4-4.4l-11.6-5.5l-8.5-3.8l-21.2-15.6l-29.8-25.3l-27.2-27.6l-24.7-29.4l-16.7-23.3
	l-15-24.2l-13.4-25l-16-36.5l-14.1-37.4l-18.6-54.6L980.9,5.1l-18.2,4.8l-3.5,6.8l-2.5,4l-2.5,3.5l-2.9,2.9l-2.6,2l-3.1,1.6
	l-4.6,1.8l-9.8-0.1h-6.6h-13.4L900.2,32l-15.6-1.4L880.3,62l-4.8,24.8l-6,24.6l-6.6,22.3l-7.8,21.8l-9,21.2l-16,30.9l-18.6,29.4
	l-20.8,28l-22.7,27l-24.4,25.4L717.9,341l-26.2,21.2l-0.5,0.4l-12.6,7l-15.8,8.1l-30,13.7l1,2.2l-14.3,6.4l10.6,26.8l7.2,21.4
	l5.7,21.6l5.1,22l3.8,19.8l3,19.8l2.5,25.9l0.5,25.9l-1,37h571.8L1227.5,582.8z M2035.4,960c-0.4-2.2-4-4-7.2-4
	c-1.6,0-2.2-0.4-3.1-3.8h1l-4.4-18.2l-8.1-24.4l-9.6-24l-11.1-23.2l-13.4-23.6l-15-22.4l-16.8-21.2l-18.4-19.8l-28.4-25l-30.6-22
	l-31.9-20.2l-36.2-20.8l-37-19l-44-19.7l-5.2,11.2l-8.1,1.2l-11.6,1l-9.1,0.4l-9.1,0.1h-19.8l-20.3,0.1l-20.3-0.1H1598l-9.1-0.1
	l-9.1-0.4l-11.6-1l-8.1-1.2l-6-11.2l-44,19.7l-37,19l-36.2,20.8l-31.9,20.2l-30.6,22l-28.4,25l-18.4,19.8l-16.8,21.2l-15,22.4
	l-13.4,23.6l-11.1,23.2l-9.6,24l-8.1,24.4l-4.4,18.2h0.5c-1,3-1.8,3.4-3.1,3.4c-2.6,0-6,1.6-7,3c-1,2-1,7.6,1.6,30.2
	c5.7,56.4,9,82.2,16,126c15.4,95.8,18.4,119.6,21.8,169c1.2,18,0.4,140.8-1,174.6c-3.1,72-3.8,86.6-7.4,152.4l-1.2,23.6l1.6,2
	c1,1.6,2.5,2,4.8,2.6c11.7,2,13.8,2.6,13.8,4.4c0,6,2.6,9,8.1,9c1.6,0,5.1,0.4,7.6,1l5.1,1l0.4,4.4c0.1,2.5,0.5,4.6,1.2,5.2
	c0.5,0.5,3.5,1.4,7,1.8c17.7,2.2,73.5,17.1,112.4,30c71.5,24,124.8,34.5,195.7,39.6c12,0.8,14.6,0.8,33-0.5
	c33.2-2.9,62.3-6.8,90.8-12.6c31.4-6.4,55-13,93.8-25.8c36-12,92.6-27.4,111.5-30.4c9.6-1.6,10.4-2.2,10.4-7.6v-3.8l3.8-0.8
	c2-0.4,6-1,8.6-1.6c6.4-1,7.6-2,7.6-6.8v-3.4l4-1c2.2-0.4,6-1.2,8.7-1.6c5.6-0.5,7.8-2.6,7.8-7c0-1.6-1-23.8-2.5-49.6
	c-2.5-45.1-3.1-62-5.7-124.7c-1.8-43-1.8-169.4,0-190.6c3.8-43.6,6.4-64.6,17.2-131.2c9.4-57.8,12.4-80.4,17.1-123.6
	C2034.6,978.4,2036,962.4,2035.4,960z M597.3,900.2l-11.7-2.5l-11.6-3.5l-12.2-5.1l-11.2-6.1l-10-7.8l-6.4-7.2l-5.6-8.2l-5.1-8.7
	l-5.2-12.2l-4-12.8l-4.4-15.2l-35.4,8.7l-28.8,10l-27.9,12.6l-26.6,15.4L372.1,871l-18.4,15l-16.8,16.4l-15.4,18L301.7,949
	l-16.8,30.4l-15.4,30.9l-19.8,41l-17.2,37.8l-9.1,1h9c-0.4,0.4-2,0.5-3,0.5c-1,0-3.4,0.5-4.6,1.6l-2.5,1.6v6c0.1,7,7,68.9,10.4,95.4
	c2.6,19.7,5.2,36.5,12.8,83.1c8.2,51.3,12,78.4,15.6,119.6c1,12.4,1.4,22.4,1.4,90.2c0,51.1-0.4,83.6-1,98c-0.4,12-1.6,36.6-2.5,55
	c-1.6,38.4-3.1,73.2-4.2,89.6c-1,17.1-1,17.6,1.2,20.2l2,2.5l8.5-0.1l8.2-0.1l-0.4,4c-0.4,3.8-0.1,4.2,1.6,6c1.6,1.8,3,2.2,6.6,2.6
	c2.5,0.4,6.1,0.1,8.5-0.1l3.5-0.5v6.6c0,9.1,0.4,10,9.4,10.2c7.6,0.1,7,0.4,44-10.4c56-16.2,105.4-28.8,154-38.6
	c33-6.6,71.5-12.4,149.2-14.6V900.6L597.3,900.2z M1030.6,1094.8c-0.5-2.5-4.4-4.6-8.1-4.6h-2.9l0,0h9.6l-9.1-1l-17.1-38l-19.9-41
	l-15-31l-16.8-30.2l-19.7-28.5l-15.4-17.7l-17.1-16.4l-18.2-15l-19.4-13.7l-26.6-15.2L807,829.8l-28.8-10l-35.2-9l-4.6,15.2l-4,12.8
	l-5.2,12.2l-4.8,8.7l-5.7,8.2l-6.4,7.2l-10,7.8l-11.2,6.1l-12.2,5.1l-11.6,3.5l-11.7,2.5l-4.4,0.4v816.6c19.3,1.4,42.6,4.4,71,9.1
	c49.6,8.2,121.2,25.8,192.8,47c22.3,6.6,24.6,7.2,31.4,7.6l7.2,0.4l2.2-2.2c2.2-2.2,2.2-2.5,2-8.6c-0.1-5.5,0-6.1,0.8-6
	c6.4,1.8,15,1,17.6-1.4c1.4-1.4,1.6-2.5,1.6-6.1v-4.4l7.6,0.4c12,0.4,13.7-1,12.8-12c-1-15-3.4-66.4-6.1-132
	c-1.6-33.5-1.6-45.7-1.6-118.2c0-87.7,0-83.6,4.4-124c3-28,5.7-47,13.8-96.3c7-43.6,9-57.2,11.7-76.5
	C1024.4,1160.6,1031,1097.2,1030.6,1094.8z"/>
<path id="stripe-3" class="st2" d="M426.9,1975.3h-21.4v-79.6h21.4V1975.3z"/>
<path id="stripe-2_00000177467244103258424240000009429447855710602395_" class="st3" d="M384.1,1895.7h21.4v79.6h-21.4V1895.7z
	 M426.9,1975.3h21.4v-79.6h-21.4V1975.3z M1228.3,553.8l0.8-7.4l-573.4,0.1l1,10l0.5,25.9l-1,37h572.1l-1-37L1228.3,553.8z
	 M40.7,733H613l-1-37l0.5-25.9l1-8.2H40l0.8,5.5l0.8,28.7L40.7,733z"/>
</svg>
