<?xml version="1.0" encoding="utf-8"?>
<!-- Generator: Adobe Illustrator 26.0.3, SVG Export Plug-In . SVG Version: 6.00 Build 0)  -->
<svg version="1.1" id="Layer_1" xmlns:svg="http://www.w3.org/2000/svg"
	 xmlns="http://www.w3.org/2000/svg" xmlns:xlink="http://www.w3.org/1999/xlink" x="0px" y="0px" viewBox="0 0 1024 1024"
	 style="enable-background:new 0 0 1024 1024;" xml:space="preserve">
<style type="text/css">
	.st0{fill-rule:evenodd;clip-rule:evenodd;fill:#F2F2F2;}
	.st1{fill:#0A8B9B;}
	.st2{fill:#24AEBB;}
	.st3{fill:#83E9ED;}
	.st4{fill:#036F7E;}
</style>
<path id="base" class="st0" d="M138.3,917.6v8.4l6.5,26.5l-6.5,26.5v8.4h321.2v-8.4l-6.5-26.5l6.6-26.5v-8.4H138.3L138.3,917.6z
	 M104.5,699.2l-0.5-11.7l-1-18.2l-1-19.9l-1.5-23.8l-0.1-4.5l0.1-0.3l0.2-2.8h-0.2v-9.6v-8.4v-19l0.1-16l0.1-18.1h-9.8l-3.6,4.9
	l-2.9,3l-3.3,2.6l-2.5,1.5l-2.5,1l-2.8,0.6l-3.1,0.3l-3.5,0.2h-3.3l-2.9-0.5l-3-0.8l-2.3-0.8l-2.1-1l-1.9-1.2l-1.8-1.4l-3.3-3.3
	l-3.9-5.1l-9.6-0.1l-0.1,21.8v14v17v19l0.2,0.1l-0.2,2.3c0,0,0,0,0.1,0.1l-0.1-0.1l0.1,5.4l0.8,39.7l0.4,17.5l0.3,17.5l0.1,17.5
	v17.5l-0.9,21.6l-1.6,31.9L29.9,817l-1,13.4l-0.4,4.4l-0.7,8.3l-0.1,0.7l-1.2,11.8v0.1L25,868.5l-0.2,1.9l-1.1,9.6l-0.5,4.1
	l-0.4,3.2l-1,8.2l-0.1,0.5l-1.5,12.1v0.2h0.1l-0.8,6.4v0.2h0.1l-0.4,1.2l-0.7,5.6v0.2l8.5,1l4.8-0.8l17.2-3l1.9-0.3l30.8-5.3
	l7.5,0.9l3-25.6l0.5-4.7l0.2-1.9l0.5-4.7l0.2-1.9l0.5-4.7l0.2-1.9l0.5-4.7l0.2-1.9l0.5-4.7l0.2-1.9l2.2-21.2l0.5-1.6l1-11l0,0
	l0.8-8.7l1.6-19.7l1.2-19.6l1-19.6l0.7-21.6l0.4-21.7L104.5,699.2z M609.8,921.4l-0.8-6.5l0,0h0.1v-0.2l-0.8-6.5h0.1v-0.2l-0.8-6.5
	h0.1v-0.2l-0.6-4.6l-0.2-1.8h0.1l-0.3-2.8l-0.4-3.8h0.1l-0.5-4l-1-8.4l-0.9-7.2l-0.2-1.5l-0.9-7.3l-0.5-4.3l-0.5-4.2l-0.1-1.1
	l-0.4-3.7l-0.3-3.6l-0.6-6.2l-1-13.4l-1.7-27.6l-1.5-31.9l-0.5-22.7l-0.2-18.4v-18.4l0.2-18.4l0.3-18.4l0.6-41.7l0.3-5.5l-0.2-2.4
	l0.1-19v-16.6l-0.1-13.9l-0.1-21.8l-9.7,0.1l-3.9,5.2l-3.3,3.3l-1.8,1.4l-1.9,1.2l-2.1,1l-2.3,0.8l-3,0.8l-2.9,0.5h-3.3l-3.5-0.2
	l-3.1-0.3l-2.8-0.6l-2.5-1.1l-2.5-1.5l-3.3-2.6l-2.9-3l-3.6-4.9l-9.8,0.1l0.1,18.1l0.1,16v19v18l0.2,2.8l-1.2,34.3l-0.5,24.6
	l-0.5,22.5l-0.1,14.5v14.5l0.4,21.6l0.7,21.6l1,19.6l1.2,19.6l0.7,8.2l0.9,11.5l0.2,2.6l0.4,3.9l0.6,6.9l0.5,5.6l0.1,0.8l2.3,22.4
	l0.2,1.9l0.5,4.7l0.2,2l0.5,4.7l3,25.6l7.5-0.9l30.8,5.4l1.9,0.3l16.9,2.9l4.9,0.8l0,0l8.4-1L609.8,921.4z M997.1,290.9v-0.8
	l-0.5-10.5l-0.3-6.6l-0.3-5.9l-0.3-6.8l-0.9-22.7l-0.5-16.4l-0.3-12l-0.3-16.1l-0.1-7.7v-6.7V148H635.1v30.8v6.7l-0.1,7.7l-0.3,16.1
	l-0.3,12l-0.5,16.4l-0.9,22.7l-0.3,6.8l-0.3,5.9l-0.3,6.6l-0.8,15.9h366.1L997.1,290.9z M135.3,91.1l-9.3,27.3l-7,18.6l-8,18.1
	l-6.7,12.5l-7.5,12.1l-8.3,11.6l-12.4,14.8L62.6,220L48,232.6l-10.7,7.9l-4.2,1.9l-5.7,2.6l-5.2,2.2l-13.3,5.4l0.5,1.4l-7.3,3
	l4.4,10.8l2.7,8.1l2.8,9.5l2.4,9.6l2.7,12.5l2.1,12.6l1.7,14.3l0.4,14.4l-0.4,18.5h285.7L306,349l0.3-13l0.4-5l0.7-7.9l1.5-9.9
	l1.9-9.9l2.5-10.9l3.1-10.8l3.5-10.6l5.3-13.4l-7.1-3.2l0.4-1.1l-14.9-6.8l-7.9-3.9l-6.3-3.4l-0.3-0.2L276,228.3l-12.9-11.8
	l-12.1-12.7l-11.3-13.4l-10.4-14l-9.3-14.7l-8-15.4l-4.5-10.6l-3.9-10.9l-3.3-11.1l-3-12.3l-2.4-12.4l-2.1-15.8l-7.8,0.6l-5.4,0.2
	h-6.7h-3.2l-4.9,0.1l-2.3-0.8l-1.6-0.8l-1.3-1l-1.3-1.4l-1.2-1.7l-1.2-1.9l-1.8-3.4l-9-2.4L135.3,91.1z M613.9,291.5l0.4-14.4
	l0.3-2.7l1.1-11.6l2.1-12.6l2.7-12.5l2.4-9.6l2.8-9.5l2.8-7.8l4.5-10.9l-7.3-3l0.5-1.4l-13.3-5.4l-5.2-2.2l-5.7-2.6l-4.2-1.9
	l-10.6-7.8l-14.6-12.6L559,149.2l-12.4-14.8l-8.3-11.5l-7.5-12.1l-6.7-12.5l-8-18.1l-7-18.6l-9.3-27.2l-9.1-30.7l-9.1,2.3l-1.8,3.4
	l-1.2,1.9l-1.2,1.7l-1.3,1.4l-1.3,1l-1.6,0.8l-2.3,0.8l-4.9-0.1h-3.3h-6.6l-5.4-0.2l-7.8-0.6l-2.1,15.7L438.4,44l-3,12.3l-3.3,11.1
	l-3.9,10.9l-4.5,10.6l-8,15.4l-9.3,14.7l-10.4,14l-11.3,13.4l-12,12.9l-12.9,11.8l-13.1,10.6l-0.3,0.2l-6.3,3.4l-7.9,3.9l-14.9,6.8
	l0.4,1.1l-7.1,3.2l5.3,13.4l3.5,10.6l2.9,10.7l2.5,10.9l1.9,9.9l1.5,9.9l0.8,8.8l0.4,4.1l0.3,13l-0.5,18.5h285.3L613.9,291.5z
	 M1017.2,479.1c-0.2-1.1-1.9-2-3.6-2c-0.8,0-1.1-0.2-1.6-1.9h0.5l-0.5-2.2l-1.7-6.9l-0.5-1.6l-3.2-9.9l-0.2-0.7l-2.8-7l-2-5
	l-2.7-5.6l-2.9-6l-6.7-11.8l-2.8-4.2l-4.8-7.1l-3.8-4.8l-4.6-5.8l-0.5-0.5l-4.7-5.1l-4-4.3l-5.7-5l-8.5-7.4l-1.7-1.2l-7.7-5.5
	l-6-4.3l-5-3.1l-9.9-6.2l-1.1-0.7l-10-5.8l-8.1-4.6l-18.5-9.5l-21.9-9.8l-2.6,5.5l-4,0.6l-5.8,0.5l-4.6,0.2l-4.6,0.1h-9.8l-10.2,0.1
	l-10.2-0.1h-9.8l-4.6-0.1l-4.6-0.2l-5.8-0.5l-4-0.6l-3-5.5l-21.9,9.8l-7.2,3.7l-11.3,5.8l-1,0.6l-5.2,3l-12,6.9l-0.7,0.4l-10.1,6.3
	l-5.5,3.2l-6,4.3l-9.4,6.7l-0.7,0.6l-9.2,8l-4.3,3.8l-1.2,1.3l-8,8.6l-3,3.8l-5.4,6.8l-7.5,11.2l-6.7,11.8l-5.5,11.6l-4.7,12
	l-3.9,12.2v0.1l-2.2,8.9h0.3c-0.1,0.4-0.3,0.7-0.4,1c-0.3,0.6-0.7,0.7-1.2,0.7c-1.3,0-3,0.7-3.4,1.4c-0.5,1-0.4,3.8,0.7,15.1
	c2.8,28.2,4.5,41.1,8,62.9c7.7,47.9,9.2,59.7,10.8,84.4c0.6,9,0.2,70.3-0.5,87.3c-1.6,36-1.9,43.3-3.6,76.2l-0.6,11.8l0.7,1
	c0.5,0.7,1.2,1,2.4,1.3c5.9,1,6.9,1.3,6.9,2.1c0,2.9,1.3,4.4,4,4.4c0.7,0,2.4,0.2,3.8,0.5l1.1,0.3l1.3,0.3l0.1,1.9v0.2
	c0.1,1.2,0.3,2.3,0.6,2.6c0.2,0.2,0.8,0.4,1.6,0.5c0.6,0.1,1.2,0.2,2,0.3c3.7,0.4,10.5,2,18.6,4.1c11.7,3,26,7.1,37.6,11
	c4.9,1.6,9.6,3.1,14.2,4.5c0.4,0.1,0.7,0.2,1.1,0.3c28.5,8.6,52.2,12.8,82.3,14.9c6,0.4,7.3,0.4,16.4-0.3
	c16.6-1.3,31.1-3.3,45.4-6.3c13.6-2.8,24.2-5.6,39.5-10.5c0.8-0.3,1.7-0.5,2.6-0.8c1.6-0.5,3.2-1,4.8-1.6c1.9-0.6,4-1.3,6.1-2
	c2.6-0.8,5.2-1.6,8-2.5c2-0.6,4-1.2,6.1-1.8c6.4-1.9,12.9-3.6,18.6-5.1c4.4-1.1,8.4-2.1,11.6-2.8c2.1-0.5,3.9-0.8,5.3-1
	c4.7-0.7,5.2-1.1,5.2-3.8v-1.4l1.8-0.4c1-0.2,3-0.5,4.3-0.8c3.2-0.5,3.7-1,3.7-3.3V820l2-0.4c1.1-0.2,3-0.6,4.3-0.7
	c2.8-0.3,3.9-1.3,3.9-3.5c0-0.8-0.5-11.9-1.2-24.7c-1.2-22.5-1.6-30.9-2.9-62.2c-0.9-21.4-0.9-84.7,0-95.2
	c1.9-21.7,3.2-32.3,8.6-65.5c3.2-19.9,4.9-31.5,6.4-43.8c0-0.3,0.1-0.5,0.1-0.8c0.6-5.3,1.2-10.8,1.9-17.2c0.8-7.3,1.3-13,1.7-17.1
	l0,0C1017.2,482.6,1017.5,479.8,1017.2,479.1z M515.5,548.1L515.5,548.1C515.5,548,515.4,548,515.5,548.1c-0.3-1.3-2.2-2.4-4-2.4
	h-1.4l0,0h4.8l-4.6-0.5l-8.5-18.9l-9.9-20.5l-7.6-15.4l-8.4-15.1l-7.8-11.4l-2-2.9l-0.2-0.2l-7.5-8.7L450,444l-9.1-7.4l-9.7-6.7
	l-13.3-7.6L404,416l-14.4-5l-17.6-4.4l-2.3,7.5l-1.9,6.4l-2.6,6l-2.4,4.4L360,435l-1.1,1.2l-2.2,2.4l-4.9,3.9l-5.6,3.1l-2.1,0.9
	l-4,1.6l-5.8,1.7l-5.9,1.1l-2.1,0.2v-24.3l1.5-0.5l4.2-2.5l2.7-3l1.8-3.4l1.2-3.5l1-4.5l0.3-4.6l-0.3-4l0.3-4l-0.3-4.6l-1-4.5
	l-1.2-3.5l-1.8-3.4l-2.7-3l-4.2-2.5l-4.6-1.3l-4.8-0.6l-4.4,0.2l-4.4-0.2l-4.8,0.6l-4.6,1.3L296,378l-2.7,3l-1.8,3.4l-1.2,3.5
	l-1,4.5l-0.3,4.6l0.3,4l-0.3,4l0.3,4.6l1,4.5l1.2,3.5l1.8,3.4l2.7,3l4.2,2.5l1.4,0.4V451l-2.1-0.2l-0.5-0.1l-5.4-1l-5.8-1.7
	l-3.7-1.5l-2.4-1l-5.6-3.1l-1.6-1.3l-3.3-2.6l-3.2-3.6l-0.9-1.3l-1.9-2.8l-2.4-4.4l-1-2.3l-1.6-3.7v-0.1l-1.9-6.4l-2.2-7.5
	l-17.7,4.4l-14.4,5l-13.9,6.3l-13.3,7.6l-9.7,6.7l-9.1,7.4l-8.3,8.2l-7.7,8.9l-9.8,14.3l-8.4,15.1l-0.4,0.8l-1.4,1.2l-6.5,13.6
	l-9.9,20.5l-8.5,18.8l-0.1,0.1l-1.8,0.2l-2.8,0.3h4.5c-0.2,0.1-0.9,0.3-1.5,0.3c-0.4,0-0.9,0.1-1.5,0.4c-0.3,0.1-0.6,0.3-0.8,0.5
	l-1.2,0.8v3c0.1,3.5,3.5,34.4,5.2,47.6c1.3,9.8,2.6,18.2,6.4,41.6c4.1,25.7,5.9,39.1,7.8,59.7c0.5,6.1,0.6,11.1,0.6,45
	c0,25.5-0.1,41.7-0.4,49c-0.2,5.9-0.8,18.3-1.1,27.5c-0.8,19.2-1.6,36.6-2.1,44.7c-0.5,8.5-0.5,8.8,0.6,10.1l0.9,1.1l4.1-0.1
	l4.1-0.1l-0.2,2c-0.2,1.9-0.1,2.1,0.8,3c0.8,0.8,1.4,1.1,3.3,1.3c1.2,0.1,3.1,0.1,4.1-0.1l1.8-0.3v3.3c0,4.6,0.2,4.9,4.6,5.1
	c3.8,0.1,3.4,0.2,21.9-5.2c27.9-8.1,52.6-14.4,76.8-19.3c16.5-3.4,35.8-6.2,49.6-7.3v58.5l24.7,0.3v-59.2c9.6,0.7,21.3,2.2,35.4,4.6
	c0.5,0.1,1,0.2,1.5,0.2c0.7,0.1,1.4,0.2,2.1,0.4c2.3,0.4,4.7,0.9,7.2,1.3c3.4,0.7,7,1.4,10.6,2.2c3.4,0.7,6.9,1.5,10.5,2.3
	c0.5,0.1,1,0.2,1.5,0.3c0.9,0.2,1.8,0.4,2.8,0.6c3.6,0.8,7.2,1.7,11,2.6c1,0.3,2.1,0.5,3.1,0.8c0.5,0.1,1.1,0.3,1.6,0.4
	c4.3,1.1,8.6,2.2,13,3.4c1.7,0.4,3.3,0.9,5,1.3c1.7,0.5,3.3,0.9,5,1.4c0.4,0.1,0.9,0.2,1.3,0.4c1.1,0.3,2.2,0.6,3.3,0.9
	c1.8,0.5,3.6,1,5.5,1.5c3.7,1.1,7.5,2.2,11.3,3.3c2.1,0.6,3.8,1.1,5.3,1.6c0.2,0.1,0.5,0.1,0.7,0.2c0.3,0.1,0.7,0.2,1,0.3l0,0
	c0.8,0.2,1.6,0.4,2.2,0.6l0,0c0.1,0,0.3,0.1,0.4,0.1h0.1c0.4,0.1,0.7,0.2,1,0.3c0.1,0,0.3,0.1,0.4,0.1c0.5,0.1,0.9,0.2,1.4,0.3h0.1
	c0.2,0,0.3,0,0.5,0.1c0.2,0,0.4,0.1,0.6,0.1c0.1,0,0.2,0,0.3,0c0.6,0.1,1.1,0.1,1.7,0.1l3.6,0.1l1.1-1.1c1.1-1.1,1.1-1.1,1-4.3
	c-0.1-2.7,0-3.1,0.4-3c0.2,0.1,0.4,0.1,0.6,0.1h0.1c0.2,0,0.4,0.1,0.7,0.1l0,0c0.2,0,0.4,0.1,0.6,0.1c0.1,0,0.1,0,0.2,0
	c0.2,0,0.4,0,0.7,0c2.5,0.1,4.9-0.3,5.8-1.1c0.7-0.7,0.8-1.2,0.8-3.1v-2.2l3.7,0.1c6,0.2,6.7-0.4,6.4-5.9
	c-0.5-7.4-1.7-33.2-3.1-65.9c-0.7-16.7-0.8-22.8-0.8-59.1c0-43.8,0-41.8,2.1-61.8c1.5-14,2.9-23.5,6.9-48.1
	c3.5-21.8,4.5-28.6,5.8-38.1C512.3,581.1,515.6,550.3,515.5,548.1z"/>
<path id="stripe-1" class="st1" d="M626.1,466.2l-6.9,4l4.6,5.9l6.5,8.3l57-41.8l-32,99.5l3.9,26.2l51.3-151.1L626.1,466.2z
	 M1013.2,522.6l-60.4-62.1l-9.4,5.6l50.9,52.5l-117.9,31l23.8-27l-2.5,12.5l81.5-22.3l-35-33.6l-21.1,30.5l19.1-11.9l3.5-2.5
	l13.7,13.1L912.4,521l7.6-37.5l-74.5,83.7l167.5-44.1l0.7-0.2L1013.2,522.6z M818.5,581.1l-5.2-30.3l34.3-34.3l-54.8,13.8l22,2.8
	l-15.8,15l7.3,47.2l193.7-49.7l7.6-12.5L818.5,581.1z M724,512.8l159.7-107.5l-94.7-62.6l-33.6-8l104.7,70.3l-108.1,76.2L762,461
	l78.8-55.1L707,360l-20.6-7.1l-14.5,6.5l24,8.1l93.5,31.6l11.2,3.8l16.4,5.5l-64.9,47.3L724,512.8z M898.6,431L719.5,554.8l28.8-3
	l-41.1,24.7l-41.6-6.1l-2.7,9l21.3,4.1l-2.3,14c0,0,8.4,12.3,8.4,12.5l3.8-24.8l15.5,2.9l88.4-51l-38.8,3l134.5-90.8l7.9,16.4
	l4.7-19.9L898.6,431z M212.8,545.2l7.6,36.6l-47-12.5l13.7-12.8l3.5,2.4l19.1,11.6l-21.2-29.7l-34.8,32.7l81.5,21.8l-2.5-12.2
	l23.8,26.4l-117.9-30.2l51-51.2l-9.4-5.4l-61,61.1l168.2,43.1L212.8,545.2z M125.3,593.4l7.7,12.3L302.4,648v-10.7L125.3,593.4z
	 M285.4,577.4l17,16.6v-12.4L285.4,577.4z M272.6,468.4l26-17.8l1-0.7c-4.4-0.6-7.9-1.5-11.9-3c-1.1-0.4-2.1-0.8-3.1-1.2l-0.9,0.6
	L249,468.8l53.2,35v-14.8L272.6,468.4z M292.1,469.5l10.2,7v-10.4L292.1,469.5z M234.3,493.8l-7.8,14.5l4.7,19.4l7.9-16l63.2,41.6
	v-13.6L234.3,493.8z M515.5,548.1L515.5,548.1C515.5,548,515.5,548,515.5,548.1c-0.3-1.3-2.2-2.4-3.9-2.4h-1.4l-2.4-5.4
	c-2.6-5.7-5.6-12.3-8.8-19l0,0l-60.6-35.1l51.4,151.1l3.9-26.2l-31.9-99.5l53.6,39.4C515.4,549.5,515.5,548.5,515.5,548.1z
	 M356.2,599.3l-30.1-7.6v18.5l9.6,9.6l-5.2,30.3l-4.4-1.1v11l16.6,4.3l7.3-47.2l-15.8-15L356.2,599.3z M332,477.4l16.4-5.5l11.2-3.8
	l0,0l84.3-28.5c-3.4-2.7-6.9-5.3-10.5-7.7l-107.3,36.8v18.8l60.8,42.6l9.8,20.1l-70.7-50v15l98.8,66.4l-27.9-56.9L332,477.4z
	 M486.1,648.2l-2.7-9l-41.6,6.1l-41.1-24.7l28.8,3L326,552.2v13.8l63.6,43l-38.8-3l88.4,51l15.5-2.9l3.8,24.8
	c0-0.2,8.4-12.5,8.4-12.5l-2.3-14L486.1,648.2z"/>
<path id="stripe-4" class="st2" d="M609.8,921.4l-0.7-5.6l-13.7-20.2l-28.8-42.4l-2.5,20.3l26.1,38.8l3.2,4.7l3.1,4.6l0,0l4.8,0.8
	l0,0L609.8,921.4L609.8,921.4z M554.8,864.4l-7,44.2l12.8-8l3.3-26.9l2.5-20.1C566.5,853.6,555.7,863.7,554.8,864.4z M61.9,853.3
	l-28.8,42.4l-13.8,20.2l-0.7,5.6v0.2l8.5,1l4.8-0.8l3.1-4.6l3.2-4.7l26.1-38.8L61.9,853.3z M73.6,864.4
	c-0.9-0.7-11.7-10.7-11.7-10.7l2.5,20.1l3.3,26.9l12.8,8L73.6,864.4z M674.3,711.2l-7,44.2l12.8-8l5.8-47
	C686,700.5,675.2,710.5,674.3,711.2z M640.7,820.6l-4.4,16.1l16.6,21.5l9.7-1.6L640.7,820.6z M666.1,811.2l2.4,21.1l-17.9-25.2
	l-7.9,3l10.2,15.5l1.4,2.2l2.2,3.4l20.6,31.5v-34l51.7,22.4l0.8,0.3h0.3l25.2-2.6L666.1,811.2z M657.3,784.4l-4.4,11l135,52.6
	l39.6,0.8L657.3,784.4z M742.1,759.7l-22.8-2.2l133.2,90.6h25.4L742.1,759.7z M985.6,693.4l-31.9-47.1l8.3,61.8l-132.8,85.3
	l-62.8-43.5l22.2-3.4l42.1-78.8l-86.8,68.7l27.5-8l19.9-16l-12.8,25.4l-42.1,7.5l91.4,61.5l143.4-94.1l-1.7-22.9l11.4,21.1
	L985.6,693.4z M957.5,626.7l25,44.9l1.9-26.8L957.5,626.7z M982.4,622.7l-39.6-30.4l-7,48.9l-65.8-10.7l-33.9,6.6l111,18.1l5-43.5
	l34.7,28.6L982.4,622.7z M1012,472.9l-9.6-2.4l13.1,19.8l1.3-2.1l0,0l7.3-12.2L1012,472.9z M1006.5,454.7l-50.6-7.6l47.1,58.4
	l10-4.9l-32.5-40.5l29.2,4.4l13.2,2l0.6-2.4v-6.9L1006.5,454.7z M1002.3,407.6l-24.3-5.1l-15.8-3.3l9.7,12.7l14.7,2.4l15.3,2.6
	l8.8-1.1l-6.9,21.4l-4.9-0.9l-32.1-5.9l-15.7,8l52.5,8.6l8.9,1.4l11.1-34.7v-8.9L1002.3,407.6z M800.5,403l-7.9-6.3l-3.3,2.5
	l-23.5,18.1l-11.1-18.6L685.8,375L654,364.2l4.5,21.6l-10.1-8.5l-8.6,6.3l20.3,17l16.4,13.8l-5.4-26.2l-1.5-7.5l7.1,2.5l68.4,23.9
	l18,28l38-31.6L800.5,403z M170.9,764.1l8.3-60.2l-31.9,45.9l5,17.3l11.4-20.5l-1.7,22.3l139.8,89.4l0,0c0.2,0,0.4,0,0.7-0.1v-11.7
	L170.9,764.1z M302.2,656l0.1,0.2L302.2,656L302.2,656z M148.6,702.3l1.9,26.1l24.9-43.8L148.6,702.3z M262.8,688.5L197.1,699
	l-7-47.6l-39.5,29.5L146,698l34.7-27.9l5,42.5l111-17.7L262.8,688.5z M123.1,534.2c-0.1,0.3-0.2,0.5-0.4,0.8
	c-2.3,5.1-4.5,9.5-4.7,9.6c-0.2,0.1-0.6,0.2-1,0.3c-0.2,0-0.4,0-0.6,0c-0.3,0-0.8,0.1-1.3,0.3c-0.2,0.1-0.4,0.2-0.6,0.3
	c-0.1,0.1-0.3,0.2-0.4,0.3l-0.4,0.2l0.1,0.2l3.4,5.6l13.1-19.4L123.1,534.2z M131.7,516.2c-1.6,3.4-3.2,6.8-4.7,9.9l25.4-3.7
	l-32.6,39.4l10,4.8l47.1-57.1L131.7,516.2z M166,493.3l-25.3,4.6c-1.6,3.3-3.4,6.9-5.2,10.6l46.3-7.4L166,493.3z M159.6,465.1
	c-2.5,3.6-5,7.4-7.5,11.6l8.8-1.5l9.7-12.4L159.6,465.1z M474.6,780.1c-0.9-0.7-11.7-10.7-11.7-10.7l5.8,47l12.8,8L474.6,780.1z
	 M463,888.5c0.2,0.1,0.5,0.1,0.7,0.2c0.3,0.1,0.7,0.2,1,0.3l0,0c0.8,0.2,1.6,0.4,2.2,0.6l0,0c0.1,0,0.3,0.1,0.4,0.1h0.1
	c0.4,0.1,0.7,0.2,1,0.3c0.1,0,0.3,0.1,0.4,0.1c0.5,0.1,0.9,0.2,1.4,0.3h0.1c0.2,0,0.3,0.1,0.5,0.1c0.2,0,0.4,0.1,0.6,0.1
	c0.1,0,0.2,0,0.3,0c0.6,0.1,1.1,0.1,1.7,0.1l3.6,0.1l1.1-1.1c1.1-1.1,1.1-1.1,1-4.3c-0.1-2.7,0-3.1,0.4-3c0.2,0.1,0.4,0.1,0.6,0.1
	h0.1c0.2,0,0.4,0.1,0.7,0.1l0,0c0.2,0,0.4,0.1,0.6,0.1c0.1,0,0.1,0,0.2,0c0.2,0,0.4,0,0.7,0l0.3-2.7L463,888.5z M491.5,853.3
	l-65.2,24.7c1.7,0.4,3.3,0.9,5,1.3c1.7,0.5,3.3,0.9,5,1.4c0.4,0.1,0.9,0.2,1.3,0.4c1.1,0.3,2.2,0.6,3.3,0.9c1.8,0.5,3.6,1,5.5,1.5
	l49.5-19.3L491.5,853.3z M406.7,828.6l-52,33.7c2.1,0.3,4.3,0.7,6.6,1.1c0.5,0.1,1,0.2,1.5,0.2c0.7,0.1,1.4,0.2,2.1,0.4
	c2.3,0.4,4.7,0.9,7.2,1.3l57.4-39.1L406.7,828.6z M370.6,806.8l-12.9-25.4l19.9,16l27.5,8L326.2,743v8.5l34.3,64l22.2,3.4l-56.5,39
	v0.8c5.3,0.4,11.3,1,17.9,1.9l68.8-46.4L370.6,806.8z M474.4,474.3l-1.8,8.9l4.8-4C476.3,477.4,475.4,475.8,474.4,474.3z M453.5,448
	c-0.2-0.2-0.4-0.4-0.6-0.6l-58.6,20.2l-11.2,18.6L359.6,468l0,0l-3.3-2.5l-7.9,6.3l-0.4,0.3l38,31.6l18-28l57-20
	C458.7,453.2,456.2,450.6,453.5,448z"/>
<path id="stripe-3" class="st3" d="M672.4,220.8l-7,44.2l12.8-8l5.8-47C684.1,210.1,673.3,220.1,672.4,220.8z M655.4,294.1l-0.6,1.4
	h4.3L655.4,294.1z M740.2,269.3l-22.8-2.3l41.8,28.4h21.2L740.2,269.3z M983.7,203.1L951.8,156l8.3,61.8l-120.8,77.7h18.8L969,222.6
	l-1.7-22.9l11.4,21.1L983.7,203.1z M786.6,256.3l42.1-78.8l-86.8,68.8l27.5-8l19.9-16l-12.8,25.4l-42.1,7.5l59.7,40.4h22.1
	l-51.7-35.8L786.6,256.3z M972.7,147.8H962l18.6,33.4l1.9-26.8L972.7,147.8z M984.4,147.8h-2.1l2.7,2.2L984.4,147.8z M941.9,147.8
	l-8,3.2l-19.5-3.2H840l105.2,17.1l2-17.1l0.3-2.2L941.9,147.8z M776.2,147.8h-9.9l1.5,11.1L721,194.1l1.7-22l38.2-14.6l-1.6-9.6
	h-12.6l0.6,2.4l-35.6,12.4l-3.1,56.2l74.5-56.2L776.2,147.8z M719.5,147.8l-7.6,7.4l12.9-7.4H719.5z M976.8,586l20.3,12.3v-22.9
	L976.8,586z M1000.6,566.3l-1.5-10.3l-65.8,21.3l59.9,38.8l0.4-11.1l-34-24.4L1000.6,566.3z M775.5,596.7L764,608.1l5.7,41.2
	l-46.8,35.1l1.7-22l38.2-14.6l-7.3-42.9l-41.8,40.8l32.2-18.6l3.2,13.6l-35.4,12.4l-3.2,56l74.4-56L775.5,596.7z M1003.2,386.9
	l-24.4-9.5l5.3-14.2l3.3-5.6l-13-8.1l-9.4,33.2l47,19.4L1003.2,386.9z M747.1,337.1l-12.2-8.5l-9.9,8l9.8,6.9l11.2,7.8l-16.3-4.9
	l-20.8-6.2l-5.7,8.8l13.8,4.7l105.5,35.7L747.1,337.1z M886.4,477.4l4.2,9.4l47.2-12.2l-24.7-81L721.1,533.4l-14.5-2l34.1-79.5
	l14.8-10.6l-2.9-7.6l-16.2-7.7l4.3,12.6l-10.1,8.1l-0.5,1.1l-39.6,92.3l18.1,2.4l-17.5,12.7l-8.3-1.4L737.6,411l-57.5-20.2l4.2,21.1
	l-30.6,19.3l8-18.8l-13.4,4.9l-16.1,43.6l64.1-44.7l-0.5-8.8l24.8,10l-53,144.7l27.9,4.2L905.8,413l16,54.7l-24.5,6.2l-6.5-11.6
	l-86.9,56.2l62.9-11.5l-41.6,45.7l9.6,5.4l62.2-66.2l-44.1,7.7L886.4,477.4z M135.8,634.7V657l20.3-12L135.8,634.7z M133.9,615.7
	l-1.5,10l40.9,14l-33.9,23.7l0.4,10.8l60-37.8L133.9,615.7z M302.3,607l-36.4-39l36.4,6.5v-12l-60.4-38l-6.5,11.3l-24.4-6l16-53.2
	l75.3,53.4v-13.7l-82.5-58.6l-24.8,78.9l47.2,11.9l4.2-9.2l33.2,21.7l-44-7.5l62.2,64.4l4.4-2.4l5.2-2.8L302.3,607z M435.1,721.9
	l-35.5-12.4l3.2-13.6l32.3,18.6l-41.8-40.8l-7.3,42.9l38.2,14.6l1.7,22L379.1,718l5.7-41.2l-11.3-11.3l-9.5,56.2l74.3,56
	L435.1,721.9z M417.1,422.4c-2.9-1.5-5.6-2.8-8.3-4l-5.9,1.8l3.8-2.7c-4.6-2-9.1-3.7-14.1-5.2l-33.1,23l0,0l-1,0.7l-14.8,10.3
	l-1.6,1.1l0,0l-15.8,11l96.8-32.8C421.1,424.5,419.1,423.4,417.1,422.4z M453,476.2l-0.5,8.8l43.4,30.3c-3.7-7.7-7.4-15.2-10.6-21.4
	l-20.7-13.1l3.2-16.3l0.1-0.6l0.8-4.2l-3,1.1l-0.6,0.2L411.1,480l54.7,142.7l-8.2,1.5l-17.3-12.8l18.1-2.4l-39.7-92.4l-0.4-1.1
	l-10.1-8.1l4.3-12.6l-16.2,7.7l-2.9,7.6l14.8,10.6l34.1,79.5l-14.5,2l0,0l-101.8-74v14.1l127.2,92.7l28-4.2l-53.1-144.7L453,476.2z
	 M326,575.2v8.8l18.9,3.5L326,575.2z M384.3,947.6v39.7H395v-39.7H384.3z"/>
<path id="stripe-2" class="st4" d="M998.2,289.9l-1.1,0.2l-20.3,3l3.7-12l-10.7-34.8l2.7-2.1l11.7,18.3l-0.7-23.8l-9-11l-14.4,14
	l11.7,40l-2.9,13.8h22.9l5.4-4.6L998.2,289.9L998.2,289.9L998.2,289.9z M955.5,295.5h7.1l1.3-5.9L955.5,295.5z M957.7,250.2
	l-7.4,24.7l-31.1,20.6h18.2l23-15.4L957.7,250.2z M875.3,295.5h23.5l45.7-28.4l8.9-20.8L875.3,295.5z M924.2,187.3l-40.4-1.5
	l17.5,11.2l16.4,1.9l-72.1,48.3l13.8-33l24.5-0.4L868.6,203l-19.1,1l-32.6,72.3l110.4-68L924.2,187.3z M942.9,172.7l-66.2-5l1.5-7
	c0,0-28.7-9.2-29.8-9.6l15.8,14.9l-2.3,11.4l71,5.3l5.4,28.2l-117.5,75.8l23.6-1.4l105.9-71L942.9,172.7z M870.1,186.4l-21-1.1
	l8-18.1l-28.7-17.1v-2.2h-15.7l1.5,7.7l27.1,15.4L800,255.6l3.5,21.5l40.4-81.2l46,1.9L870.1,186.4z M692.9,147.8l-0.7,0.6v-0.6
	h-10.5l1.8,24.2l11.9-24.2H692.9z M789.2,171.4l-94.7,68l10.8-76.7l-28.5,29.2l-1.4,17.1l15.8-17.6L681,267.1L789.2,171.4z
	 M821.5,170.1l-19.5-15.6l-12.5,4.4l13.2,10.8L666.5,291.2l11.8,4.2h27.6l-19.8-8.2L821.5,170.1z M712.2,272.4l1,15.4l10,7.6h22.4
	L712.2,272.4z M609,915v-0.2h0.1l0,0l-0.8-6.5V908h0.1l-0.8-6.5v-0.2h0.1l-0.5-4.3l0,0l-0.1-0.3l-2.9-13.6l1.6,1.1l0,0l-1-8.6
	l-0.9-6.9l0,0l-17.2-11.7l8.8,38.7l2.9,12.8l-8.1,3.9l-12.3,5.9l-0.3,0.1l-1.5,0.7l3.4-0.4l0.7-0.1l13.2-1.6l5.3-0.6l0.9,5.6
	l1.7,0.3l8.4-1l0,0L609,915z M601.5,843.6l-0.7-0.4l-0.5-0.3l-7.1-23.1l0,0l-0.3-1l-0.1,0.9l-2.7,28.3l12.1,7.9l0.2,0.1L601.5,843.6
	z M529.8,821.6l-1,0.6l1.7,13.8l0.4-0.3l0.8-0.5l9-20.3L529.8,821.6z M545,818.7l-7.4,24.1l-5.6,3.6l-0.1,0.1l0.7,5.5l0.1,0.6
	l0.5,4.9l14.6-9.6L545,818.7z M551.2,857l-17,11.6l0.6,6.3l0.2,1.9l0.5,4.7l0.2,2l0.5,4.7l3,25.6l7.5-0.9l3,0.5l-10.3-5L551.2,857z
	 M50.9,918.6l-0.3-0.2l-12.3-5.9l-8.1-3.9l2.9-12.8l8.8-38.7l-16.8,11.4l-0.4,0.3l-0.9,6.9l-1,8.6l0.5-0.3l1.2-0.8l-2.6,12.2
	l-0.4,1.7l0,0l-0.5,4.3h0.1l-0.8,6.6h0.1v0.2l-0.8,6.4l0,0h0.1v0.2l-0.8,6.5l0,0l8.4,1l1.7-0.3l0.9-5.6l5.3,0.6l13.2,1.6l0.7,0.1
	l3.4,0.4L50.9,918.6z M35.7,819.6l-0.1-0.9l-0.3,1l0,0l-7.1,23.1l-0.3,0.2l-0.9,0.6l-1,12.4l0.5-0.3l11.8-7.7L35.7,819.6z M99.3,822
	l-11.6-7.1l9,20.3l1.2,0.7l0.2-1.7l1.5-12L99.3,822z M90.9,842.7l-7.4-24.1l-2.7,29.2l14.6,9.6l0.5-4.9l0.7-6.1L90.9,842.7z
	 M77.2,857l11.7,51.4l-10.3,5l3-0.5l7.5,0.9l3-25.6l0.5-4.7l0.2-2l0.5-4.7l0.2-1.9l0.6-6.3L77.2,857z M685.7,839.6v17l24.5-6.1
	L685.7,839.6z M916.3,848.4l-2.2-6.8l-10.9,8.8l10.5-1.2l2.7-0.3L916.3,848.4z M935.1,842.4l-3.9-13.7l-4,16.1l-1.4,5.6h11.7
	L935.1,842.4z M994.4,831.2l-12.4-4.8l-9.8-3.8l4.3-22l23.8-20.4l-21.5,3.2l3.7-12.1l-10.7-34.8l2.7-2.1l11.7,18.3l-0.8-23.8
	l-8.9-11l-14.4,14l11.7,40l-11.7,55.8l9.4,4.9l31.5,16.2L994.4,831.2z M959.8,835.5l-5.6-2.8l11.7-52.8l-75.2,52.5l-32-20.8
	l10.5-6.4l20.3,14l72.9-48.9l-2.7-29.9l-7.4,24.7l-63.2,41.8l-9.7-7.9l67-41.7l8.9-20.9l-118,74.5l52.9,34.8l58-39.1l-7.2,33.9
	l-1.8,8.6l12.9,1.2l1.5-9.4l22.6,2.7L959.8,835.5z M926.1,677.7l-40.4-1.5l17.6,11.1l16.3,2l-72.1,48.3l13.8-33l24.5-0.5l-15.4-10.6
	l-19.1,1l-32.6,72.3l110.4-68L926.1,677.7z M944.8,663.1l-66.2-5l1.5-7c0,0-28.7-9.2-29.8-9.6l15.8,14.9l-2.3,11.4l71,5.3l5.4,28.2
	l-117.4,75.7l23.6-1.4l105.9-71L944.8,663.1z M933.1,619l-124.9-14.2l7.8,41.1l27.1,15.4l-41.3,84.6l3.5,21.5l40.4-81.2l46,1.9
	l-19.7-11.3l-21-1l8-18.2l-28.6-17.1l-0.4-22.4l101.1,11.4L933.1,619z M931.7,586.3l-8.9,15.4l-50.2-5.6l36.7-10.2l17.3-15
	l-115.3,29.5l122,13.4L931.7,586.3z M667.3,589.6l9.9,58.1v-48.6L667.3,589.6z M713.2,605.6l-14.3,15.5l19.6-5.9l-24.2,23.6
	l-1.5-18.5l-11.4-11.9l4.1,54l90-79.2L713.2,605.6z M791.2,661.7l-94.7,68l10.8-76.7l-28.5,29.1l-1.4,17.2l15.8-17.6l-10.3,75.8
	L791.2,661.7z M715.2,778.2l30.6,23.2l-57.7-23.8l135.3-117.2l-19.5-15.5L791.4,550l-89.2,51l77.5-33.6l11.9,81.9l13.3,10.8
	L668.6,781.6l152.7,55.1l-107.1-73.8L715.2,778.2z M1020.4,369.2l-24.7-8.8l-5,15.3l31.7,15.2L1020.4,369.2z M928.2,336.6l-19.7,11
	l-19.3,10.8l-30.8-21.7l-16.4,3l47,32.5l30.7-18.1l19.9-11.7L928.2,336.6z M635.6,489.6l6.1,10.1l14.3-13.1l-6.2,24.2l6.3,14.8
	l17.9-64.8L635.6,489.6z M991.3,429.3l-12.5-12.6l-29.5-3.9l5.5-19l-0.1,0.4l18.1,1.8l7.7,0.8l-12.5-5.9l-10.9-5.1l1.2-4.2
	l13.8-47.2l-42.6,25.8l-40,24l-66.2-43l-15.1,1.1L890,398l50.6-30.5l11-6.6l-3.3,12.1l-9.1,33.8l-6.9-25.8l-7.2,21.8l13.9,46.1
	l9.3-31.7l-1.2,5.5L991.3,429.3z M170.9,787.4l-14.4-13.7l-9,10.7l-0.7,23.2l11.7-17.8l2.7,2l-10.7,34l3.7,11.7l-21.4-3.1l23.8,19.9
	l4.2,21.4l-16.8,6.3c1.2,0.1,2.6,0,3.5-0.2l1.8-0.3v3.3c0,4.2,0.2,4.9,3.5,5l18.1-9.1l-11.7-54.3L170.9,787.4z M177.5,791.8
	l8.9,20.3l67,40.7l-9.7,7.7l-63.2-40.8l-7.4-24.1l-2.7,29.2l67,43.8c5.1-1.1,10.1-2.2,15.2-3.2c0.5-0.1,1-0.2,1.5-0.3l9.4-6.3l6,3.5
	c6.2-1,12.4-1.9,18.2-2.7L177.5,791.8z M222.8,872.2l-55.8-38l11.3,50c3.6-1,7.2-2.1,10.7-3.1l-4.5-20.7l23.7,15.5
	C213.1,874.5,218,873.3,222.8,872.2z M281.3,750.7l-19.1-1l-15.4,10.4l24.5,0.4l13.8,32.1l-72.1-47l16.4-1.9l17.5-10.9l-40.4,1.5
	l-3.3,20.5l98.9,59.5v-18.1L281.3,750.7z M192.7,757.3l5.5-27.5l71-5.2l-2.4-11.1l15.8-14.5c-1.2,0.4-29.8,9.4-29.8,9.4l1.5,6.8
	l-66.2,4.9l-7.4,40.5l105.9,69.2l15.7,0.9v-4.5L192.7,757.3z M302.3,698.3l-28.4,16.5l8,17.7l-21,1l-19.7,11l46-1.9l15.1,29.7v-28.8
	l-12.6-25.1l12.6-7L302.3,698.3L302.3,698.3z M199.8,677.3l2.2,10.1l100.4-11.1v-10.4L199.8,677.3z M206.4,630.4l17.4,14.6l36.6,10
	l-50.2,5.5l-9-15l-1.3,26.8l102.5-11.1v-6.9L206.4,630.4z M261.3,420.8l-1.5-0.6l-9.7-3.9l-6.4,6.7l-15.8-8.6
	c-4.4,1.7-8.6,3.5-12.8,5.5l28.9,16.6l17.5-12.5l0.9-0.7C262,422.4,261.6,421.6,261.3,420.8z M207.9,466.5l-7.3-21.2l-6.9,25.2
	l-8.8-31.9c-2.8,2.2-5.6,4.6-8.2,7c-0.6,0.6-1.3,1.2-1.9,1.8l0.8,2.7l-6.2,2.8c-1.9,2.1-3.8,4.4-5.7,6.7l14.3-1.4l5.4,18.1
	l-29.5,3.8l-8.4,8.2l-2.9,2.9l-1.2,1.2l0.7-0.1l1.5-0.2L186,486l-1.2-5.5l9.3,31L207.9,466.5z M267.6,432.8l-1,0.6l-23.4,14.8
	l-39.1-22.8c-3.9,2.2-7.6,4.5-11.2,7l49.9,29.3l31.3-20.8l0.9-0.6C272.2,438.3,269.8,435.8,267.6,432.8z M326,827.2v6.2l3.8,2.4
	L326,827.2z M326,776.7L326,776.7L326,776.7L326,776.7z M326,771.7V801l17.5,35.3l3.5-21.5L326,771.7z M326,675.4v43.3l6.8-3.9
	l7.8-41.1L326,675.4z M326,666.3v4.3l11.6-1.3L326,666.3z M471.7,668.1v48.6l9.9-58.1L471.7,668.1z M456.1,689.2l-1.4,18.5
	l-24.3-23.6l19.6,6l-14.3-15.6l-62.2-22.4l90,79.3l4.1-54L456.1,689.2z M471.7,768.1l-1.5-17.2l-28.6-29.1l10.8,76.7l-94.7-68
	l108.4,95.7l-10.2-75.8L471.7,768.1z M344,729l13.2-10.8l11.9-81.9l77.5,33.6L357.3,619l-12.4,94.8L326,728.9l-0.6,0.5l0.6,0.5
	l134.8,116.7l-57.7,23.7l30.6-23.2l0.9-15.4l-51.9,35.8c3.4,0.7,6.9,1.5,10.5,2.3c0.5,0.1,1,0.2,1.5,0.3c0.9,0.2,1.8,0.4,2.8,0.6
	c3.6,0.8,7.2,1.7,11,2.6c1,0.3,2.1,0.5,3.1,0.8c0.5,0.1,1.1,0.3,1.6,0.4l67-24.2L344,729z M513.1,558.5l-38.5-28.8l17.9,64.8
	l6.4-14.8l-6.2-24.2l14.3,13.1L513.1,558.5z M613.9,291.5l0.4-14.4l0.3-2.7H328.3l0.5,4.1l0.3,13l-0.5,18.5h285.9L613.9,291.5z
	 M21,334.5l0.4,14.4L21,367.4h285.7l-0.5-18.5l0.3-13l0.5-5h-0.2H20.5L21,334.5z M373.5,947.7v39.7h10.7v-39.7H373.5z M394.9,947.7
	v39.7h10.7v-39.7H394.9z"/>
</svg>
