<?xml version="1.0" encoding="utf-8"?>
<!-- Generator: Adobe Illustrator 26.5.0, SVG Export Plug-In . SVG Version: 6.00 Build 0)  -->
<svg version="1.1" id="Layer_1" xmlns="http://www.w3.org/2000/svg" xmlns:xlink="http://www.w3.org/1999/xlink" x="0px" y="0px"
	 viewBox="0 0 2048 2048" style="enable-background:new 0 0 2048 2048;" xml:space="preserve">
<style type="text/css">
	.st0{fill:#FFFFFF;}
	.st1{fill:#8DA018;}
	.st2{fill:#AA00A8;}
	.st3{fill:#0057B7;}
</style>
<path id="base" class="st0" d="M1030.5,1094.6c0.7,2.4-6.5,65.9-10.8,99.2c-2.4,18.9-4.4,32.6-11.6,76.1c-8,49-10.6,67.9-13.8,96.3
	c-4.4,39.9-4.3,36.2-4.3,123.7c0,72.5,0,84.8,1.5,118.3c2.7,65.9,5.1,117.4,6.1,132.3c0.9,10.9-0.9,12.1-12.8,11.8l-7.7-0.2v4.4
	c0,3.8-0.2,4.8-1.5,6.1c-2.4,2.4-11.3,3.1-17.6,1.4c-1-0.2-1,0.9-0.9,6.1c0.2,6.5,0.2,6.5-2,8.5l-2.2,2.2l-7.2-0.2
	c-6.7-0.3-9-1-31.4-7.7c-71.7-21.3-143.2-38.7-192.9-46.9c-34.8-5.8-61.8-9-83.5-10.1c-4.4-0.2-7.3-0.3-9.7-0.3
	c0.7-0.2,1-0.3,1.5-0.9l-9.7-1.4V905.5l9.7-1.5c-1-0.9-2.2-1.2-5.1-1.4c1.2-0.2,3.2-0.3,6.8-0.3c1.4,0,2.7,0,4.3,0v-0.9h7.9
	l11.8-1.2l11.8-2.2l11.6-3.6l12.1-4.9l11.3-6.5l9.7-7.9l6.5-7.2l5.6-8.2l4.9-8.9l5.1-11.9l3.8-13l4.8-15l35.3,9l28.8,10.1l27.8,12.6
	l26.6,15.2l19.5,13.7l18.4,14.8l17,16.5l15.4,17.9l19.6,28.7l16.7,30.4l15.4,30.7l19.8,41l17.2,37.7l9.2,1h-5.1
	C1027.2,1090.9,1030,1092.6,1030.5,1094.6z M622.1,1713.8l-1.5-1.9v-806l2-1.9c0.9-0.9,1.4-1.2,2.6-1.4c-1.9-0.2-4.3-0.3-7.9-0.3
	v-0.9h-7.9l-11.8-1.2l-11.8-2.2l-11.6-3.6l-12.1-4.9l-11.3-6.5l-9.7-7.9l-6.5-7.2l-5.8-8.2l-4.8-9l-5-11.9l-3.8-13l-4.9-14.8
	l-35.3,8.9L446.2,830l-27.8,12.8L391.8,858l-19.5,13.5L354,886.2l-17.1,16.4l-15.4,17.7l-19.8,28.5L285,979.1l-15.2,30.7l-20,41
	l-17,38l-9.2,1h9.2c0,0.2-0.2,0.2-0.2,0.2c-0.3,0.2-1.9,0.7-3.2,0.7c-1.4,0-3.2,0.9-4.6,1.9l-2.4,1.5l0.2,6
	c0.2,7.2,7,68.8,10.4,95.2c2.6,19.6,5.1,36.4,12.8,83.3c8.4,51.4,11.8,78.2,15.9,119.6c1.2,12.1,1.2,22.2,1.2,90.3
	c0,51-0.2,83.6-0.9,98c-0.3,11.8-1.5,36.9-2.2,55c-1.5,38.4-3.2,73.2-4.3,89.6c-1,17.1-1,17.6,1.2,20.1l1.9,2.2l8.2-0.2l8.4-0.2
	l-0.3,3.9c-0.3,3.8-0.2,4.3,1.9,6.1c1.9,1.5,2.7,2.2,6.8,2.6c2.4,0.2,6.1,0.2,8.2-0.2l3.8-0.9v6.7c0,9.4,0.3,9.7,9.2,10.2
	c7.7,0.2,6.8,0.3,43.9-10.4c55.8-16.4,105.5-28.8,153.8-38.7c38.4-7.9,84.5-14.2,112-15.2c9.4-0.3,12.6-0.7,14.3-1.2
	C623.4,1715.3,623.3,1715,622.1,1713.8z M2035.9,959.7c-0.3-2.2-3.8-3.9-7.2-3.9c-1.5,0-2.2-0.3-3.2-3.4h0.3l-4.4-17.9l-7.9-24.4
	l-9.6-24.1l-11.3-23.4l-13.5-23.6l-15.2-22.4l-16.7-21.2l-18.4-19.8l-28.3-24.7l-30.7-22.2l-32.1-20l-36.2-20.8l-37.2-19.1
	l-43.9-19.6l-5.5,10.9l-8.2,1.2l-11.6,1.2l-9.2,0.3l-9.2,0.2l-19.6,0.2l-20.5,0.2l-20.5-0.2l-19.8-0.2l-9.2-0.2l-9.2-0.3l-11.6-1.2
	l-8.2-1.2l-5.8-10.9l-43.9,19.6l-37.2,19.1l-36.2,20.8l-32.1,20l-30.7,22.2l-28.3,24.7l-17.9,19.5l-16.7,21.2l-15.2,22.4l-13.5,23.6
	l-11.3,23.4l-9.6,24.1l-7.9,24.4l-4.4,17.9h0.3c-1,3.1-1.5,3.4-3.1,3.4c-2.6,0-6.1,1.5-6.8,2.7c-1.2,2.2-0.9,7.7,1.5,30.2
	c5.6,56.3,9,82.3,16,126c15.4,95.7,18.4,119.6,21.7,169c1.2,18.3,0.3,140.8-1,174.8c-3.2,72.2-3.8,86.9-7.2,152.4l-1.2,23.6l1.5,2
	c1.2,1.5,2.4,2.2,4.9,2.6c11.8,2,13.8,2.6,13.8,4.3c0,5.8,2.7,8.9,8,8.9c1.5,0,4.8,0.3,7.7,1.2l4.8,1.2l0.2,4.3
	c0.2,2.4,0.9,4.8,1.4,5.5c0.7,0.7,3.6,1.2,7.2,1.9c17.7,2.2,73.2,17.2,112.5,30.2c71.7,23.7,124.8,34.6,195.6,39.6
	c11.9,0.9,14.7,0.9,32.8-0.9c33.3-2.6,62.1-6.7,90.8-12.6c31.4-6.5,54.8-12.8,93.9-25.8c36-11.9,92.7-27.5,111.6-30.2
	c9.6-1.5,10.4-2.2,10.4-7.7v-3.8l3.6-0.9c2.2-0.3,6-1.2,8.9-1.5c6.5-1,7.7-2,7.7-6.7v-3.8l4.3-0.9c2.2-0.3,6.1-1.2,8.5-1.5
	c5.6-0.9,7.9-2.7,7.9-7.2c0-1.5-1.2-23.7-2.4-49.7c-2.4-45.1-3.2-61.8-6-124.8c-1.9-42.8-1.9-169.5,0-190.6
	c3.8-43.5,6.5-64.7,17.4-131.4c9.2-57.7,12.5-80.4,16.7-123.6C2035,977.9,2036.4,962,2035.9,959.7z M643.6,469.8l4.9,21.8l3.8,19.8
	l3.1,19.8l2.2,25.8l0.7,25.9l-1,37h571.8l-0.9-37l0.9-28.8l2.7-28.7l4.3-25.3l5.6-25.3l4.8-19.5l5.8-18.9l5.6-15.5l9-21.7l-14.7-6
	l1.2-2.7l-26.8-10.8l-10.3-4.3l-11.6-5.1l-8.4-3.8L1175,351l-29.2-25.3l-27.1-27.6l-24.7-29.9l-16.6-23.2l-15.2-24.2l-13.5-25.3
	l-16-36.2l-14-37.2l-18.6-54.6L981.7,6.2l-18.3,4.6l-3.6,7l-2.4,3.8l-2.4,3.6l-2.6,2.7l-2.7,2l-3.2,1.9l-4.6,1.5l-9.7-0.2l-6.7-0.2
	L912,32.7l-10.8-0.3l-15.5-1.2l-4.3,31.4l-4.8,24.7l-6,24.6l-6.8,22.4l-7.9,21.8l-9.2,21.2L830.5,208l-18.8,29.4L791,265.2
	L768.1,292l-24.2,25.4l-25.8,23.7l-26.5,21.2l-0.7,0.3l-12.6,6.8l-15.9,7.9l-29.9,13.8l0.9,2.2l-14.2,6.5l10.6,27l7,21.2
	L643.6,469.8z M612.7,670.8l2.2-25.8l3.1-19.8l3.8-19.8l4.9-21.8l6.1-21.8l7.2-21.2l10.6-27l-14.3-6.5l0.9-2.2l-29.9-13.8l-15.9-7.9
	l-12.6-6.8l-0.7-0.3l-26.3-21.2L526,431.2l-24.2-25.4L478.9,379l-20.8-28.2l-18.6-29.4l-16.2-30.7l-9.2-21.2l-7.9-21.8l-6.8-22.4
	l-6-24.6l-4.8-24.7l-4.4-31.6l-15.5,1.4l-10.8,0.3h-13l-6.5,0.2l-9.7,0.2l-4.6-1.9l-3.2-1.5l-2.6-2l-2.7-2.7l-2.4-3.6l-2.4-3.8
	l-3.6-6.8l-18.3-4.8L270.5,181l-18.6,54.6l-14,37.2l-16,36.4l-13.5,25.3l-15.2,24.2l-16.6,23.4l-24.7,29.5l-27.1,27.3l-29.4,25.3
	l-21.3,15.9l-8.4,3.8l-11.6,5.5l-10.4,4.4l-26.8,10.8l1.2,2.7l-14.7,5.8l8.9,21.8l5.6,15.9l5.8,18.9l4.8,19.5l5.6,24.9l4.3,25.4
	l2.7,28.7l0.9,28.7l-0.9,36.9h572.1l-1-37L612.7,670.8z M276.5,1958.1v16.7h643.2v-16.7l-13.1-53.1l13.2-53.1v-16.7H276.6v16.7
	l13.1,53.1L276.5,1958.1L276.5,1958.1z M676.2,774.6l-2-9.2l-2.4-7.2l-3.6-6.8l-5.5-6l-8.4-4.9l-9.2-2.9l-9.7-1.2l-8.9,0.3l-8.9-0.3
	l-9.7,1.2l-9.2,2.7l-8.4,4.9l-5.5,6l-3.6,6.8l-2.4,7.2l-2,9.2l-0.9,9.2l0.7,8.2l-0.7,8.2l0.9,9.2l2,9.2l2.4,7.2l3.6,6.8l5.5,6
	l8.4,4.9l9.2,2.7l9.7,1.2l8.9-0.3l8.9,0.3l9.7-1.2l9.2-2.7l8.4-4.9l5.5-6l3.6-6.8l2.4-7.2l2-9.2l0.9-9.2l-0.7-8.2l0.7-8.2
	L676.2,774.6z M1995.4,592.4l-1.5-31.7l-0.7-13.1l-0.7-11.9l-0.7-13.7l-1.9-45.6l-1.2-32.8l-0.9-24.1l-0.7-32.3l-0.2-15.4l-0.2-13.5
	v-61.6h-717v61.6v13.5l-0.2,15.4l-0.7,32.3l-0.7,24.1l-1.2,32.8L1265,522l-0.7,13.7l-0.7,11.9l-0.7,13.1l-1.5,31.7h619.3H1995.4
	L1995.4,592.4z M1218,1829.5l-1.5-13.1h0.2l-1.5-13.5h0.2l-1.9-13.5h0.2l-1.5-13.1h0.2l-3.1-24.7l-2.2-17.2l-1.9-14.7l-2.4-19.1
	l-0.9-7.7l-1.9-19.6l-2.2-26.8l-3.6-55.1l-3.2-63.8l-1-45.6l-0.3-36.9v-36.9l0.3-37l0.7-36.9l1.2-83.5l0.7-10.9l-0.3-4.8l0.2-38.1
	l-0.2-34.1l-0.2-27.8l-0.2-43.9l-19.6,0.2l-7.9,10.4l-6.7,6.7l-3.6,2.7l-3.8,2.4l-4.3,2l-4.8,1.5l-6,1.5l-5.8,1l-6.7-0.2l-7.2-0.3
	l-6.1-0.7l-5.8-1.2l-5.1-2.2l-4.9-3.1l-6.7-5.1l-5.8-6l-7.2-9.7h-19.6l0.2,36.4l0.2,32.3l0.2,38.1l-0.2,36l0.3,5.8l-2.4,68.6
	l-1.2,49.2l-1.2,45.2l-0.2,29v29l0.9,43.2l1.5,43.2l2,39.3l2.4,39.3l3.2,39.6l3.6,39.6l4.6,44.9l0.3,3.8l1,9.4l0.3,3.9l1,9.4l6,51.4
	l15-1.9l109.2,18.9l16.7-2.2L1218,1829.5L1218,1829.5z M206.7,1374l-2-36.4l-2.2-39.8l-3.2-47.6l-0.2-9.2l0.2-0.9l0.3-5.6h-0.3
	l-0.2-19.1v-16.7l0.2-38.1l0.2-32.3l0.3-36.2l-19.6-0.2L173,1102l-5.8,6l-6.8,5.1l-4.9,3.1l-5.1,2.2l-5.6,1.2l-6.5,0.9l-7.2,0.3
	l-6.7,0.2l-5.8-1l-6.1-1.5l-4.6-1.5l-4.3-2l-3.8-2.4l-3.6-2.7l-6.7-6.8l-7.9-10.4l-19.5-0.3l-0.2,43.9l-0.2,27.8l-0.2,34.1l0.2,38.1
	l0.3,0.2l-0.3,4.8l0.2,0.2l-0.3-0.2l0.4,10.5l1.5,79.4l0.9,35.2l0.7,35.2l0.2,35.2l-0.2,35l-0.7,43.3l-3.2,63.8l-3.4,55.1l-2.2,26.8
	l-1.5,25.9l-2.4,24.1l-3.6,29.5l-2.2,19.1l-2,14.7l-2.2,17.4l-3.2,24.7h0.2l-1.5,13.1H37l-1.5,13.1l17.1,2.2l109.1-18.8l15,1.9
	l6-51.2l1-9.4l0.3-3.8l1-9.4l0.3-3.8l1-9.4l0.3-3.8l1-9.4l0.3-3.9l1-9.4l0.3-3.8l4.8-44.7l3.8-39.6l3.2-39.6l2.4-39.3l2-39.3
	l1.5-43.2l0.9-43.3l-0.7-24.2L206.7,1374z"/>
<path id="stripe-1" class="st1" d="M747.6,1895.3h21.3v79.5h-21.3V1895.3z M241.8,1244.5h359.8v-31.7H241.8V1244.5z M651.3,1244.5
	H1011v-31.7H651.3V1244.5z M1240.7,1077.8v31.7h785.1v-31.7H1240.7z"/>
<path id="stripe-2" class="st2" d="M790.4,1895.3h21.3v79.5h-21.3V1895.3z M42.4,696.7l-1.2,37h572.1l-1-37l0.7-25.9l1-10.1
	l-573.3-0.2l0.9,7.3L42.4,696.7z M1229.1,620.3l-0.9-37l0.9-28.8l0.7-5.5H656.2l1,8.2l0.7,25.9l-1,37L1229.1,620.3L1229.1,620.3z
	 M241.8,1244.5v31.7h359.8v-31.7H241.8z M651.3,1244.5v31.7H1011v-31.7H651.3z M1240.7,1109.7v31.7h785.1v-31.7H1240.7z"/>
<path id="stripe-3" class="st3" d="M768.9,1895.3h21.3v79.5h-21.3V1895.3z M241.8,1276.2v31.7h359.8v-31.7H241.8z M651.3,1276.2
	v31.7H1011v-31.7H651.3z M1240.7,1141.4v31.7h785.1v-31.7H1240.7z"/>
</svg>
